<?xml version="1.0" encoding="UTF-8"?>
<svg version="1.1" xmlns="http://www.w3.org/2000/svg" width="1083" height="1027">
<path d="M0 0 C1.80274389 2.70411584 3.20654772 5.420019 4.61230469 8.34228516 C29.1156149 59.03838165 81.39922364 87.98356458 132.58886719 105.83154297 C218.08535644 135.11770082 314.77687554 141.74509452 540.18310547 96.43212891 C555.94021385 88.42110466 570.15878007 78.12075544 583 66 C583.76054688 65.30390625 584.52109375 64.6078125 585.3046875 63.890625 C598.22544326 51.6404967 606.42174403 36.42045671 610 19 C611.83233822 21.74850733 612.37876315 23.00587129 613 26.10546875 C613.16395264 26.91604736 613.32790527 27.72662598 613.49682617 28.56176758 C613.74589722 29.86150513 613.74589722 29.86150513 614 31.1875 C614.17442627 32.08299561 614.34885254 32.97849121 614.52856445 33.90112305 C624.0709067 84.10214094 621.71247097 141.25077729 592.26953125 184.7421875 C578.11815757 205.05586332 561.54585022 223.73231125 542 239 C540.84820307 239.93888799 539.69859274 240.88046263 538.55078125 241.82421875 C523.88566451 253.8346112 508.19046484 263.90421013 492.0144043 273.75415039 C490.32101653 274.80146075 488.6566832 275.89554453 487 277 C486.01 276.67 485.02 276.34 484 276 C484.825 275.42894531 485.65 274.85789062 486.5 274.26953125 C498.80120159 265.66770861 510.5515191 256.37229396 521.59375 246.1953125 C523.59915406 244.36570685 525.63460994 242.59109476 527.69140625 240.8203125 C532.46366083 236.65278806 536.96084573 232.23114259 541.4375 227.75 C542.27716309 226.90953125 543.11682617 226.0690625 543.98193359 225.203125 C549.73590594 219.39198285 555.00076519 213.473236 560 207 C561.47783974 205.2488793 562.95705538 203.49891903 564.4375 201.75 C579.01542187 183.7924215 599.88442642 154.36607183 598 130 C596.89480877 124.0415777 594.96294994 119.69581379 590 116 C566.94052594 103.2436952 532.80666348 110.38861501 509.01000977 116.97680664 C468.33431712 128.75817616 429.86618939 148.46693249 393 169 C392.09491699 169.50080078 391.18983398 170.00160156 390.25732422 170.51757812 C377.31145973 177.68759538 364.59671921 185.19367318 351.97753906 192.91943359 C346.52931396 196.2543237 341.0756209 199.56397141 335.52539062 202.72680664 C311.12675834 216.66574777 287.08032501 233.06519884 265.88671875 251.515625 C263.25120838 253.78380443 260.55266027 255.92343389 257.8125 258.0625 C245.71897864 267.91845353 234.32090516 279.48127942 225 292 C224.60409668 292.52480957 224.20819336 293.04961914 223.80029297 293.59033203 C214.60828372 305.82871489 206.88528421 318.38386511 202 333 C201.76539063 333.680625 201.53078125 334.36125 201.2890625 335.0625 C199.28915135 341.78683894 199.34476778 349.03206165 199 356 C193.93853464 351.47739787 190.52673943 346.05859394 186.875 340.375 C185.88367065 338.83900146 185.88367065 338.83900146 184.87231445 337.27197266 C176.76751916 324.62570569 169.20683362 311.8217351 162.625 298.3125 C162.23207764 297.51827637 161.83915527 296.72405273 161.43432617 295.90576172 C154.85708385 282.02218605 151.85950143 267.37859112 149.11953735 252.36172485 C148.35869718 248.19688248 147.57408126 244.03661965 146.7910614 239.87590027 C146.21212755 236.79786414 145.63622812 233.71927087 145.06054688 230.640625 C138.49958963 195.65472412 132.23188705 166.6059007 107 140 C106.15695312 139.10410156 105.31390625 138.20820312 104.4453125 137.28515625 C90.74258613 123.12567233 74.13273141 112.82973694 57.66796875 102.19921875 C50.20057358 97.35233469 43.40658291 92.21780699 37 86 C36.41347656 85.47535156 35.82695312 84.95070313 35.22265625 84.41015625 C14.72734115 65.45801782 3.274155 36.22042586 0 9 C-0.06056151 7.35514934 -0.08781955 5.70827043 -0.0625 4.0625 C-0.05347656 3.29035156 -0.04445312 2.51820313 -0.03515625 1.72265625 C-0.02355469 1.15417969 -0.01195312 0.58570313 0 0 Z " fill="#8D0004" transform="translate(185,527)"/>
<path d="M0 0 C1.385248 5.40584584 2.49903809 10.87192796 0.01464844 16.05615234 C-2.75162775 20.40448986 -6.05706945 24.31076794 -9.43701172 28.19140625 C-11.53275721 30.61647382 -13.4702927 33.15770819 -15.4375 35.6875 C-23.09949199 44.90128784 -31.67067123 53.18344774 -41.0546875 60.625 C-44.61551083 63.49632704 -48.05608225 66.49034914 -51.5 69.5 C-56.65729241 73.99530386 -61.86162462 78.41377991 -67.18164062 82.71679688 C-70.07109748 85.05759734 -72.95083079 87.4098947 -75.828125 89.765625 C-76.80168945 90.56258789 -77.77525391 91.35955078 -78.77832031 92.18066406 C-79.51147461 92.78104492 -80.24462891 93.38142578 -81 94 C-76.52010889 94.12521195 -72.0411905 94.21508136 -67.56005859 94.2746582 C-66.04132306 94.29953709 -64.52270382 94.33345385 -63.00439453 94.37719727 C-52.81687148 94.66298587 -45.2081523 93.83624751 -36 89 C-34.98776367 88.50556396 -33.97552734 88.01112793 -32.93261719 87.50170898 C-29.68045251 85.89944377 -26.46331204 84.24124425 -23.25 82.5625 C-22.08621826 81.95704346 -20.92243652 81.35158691 -19.72338867 80.7277832 C-8.81385319 75.01604419 1.7933905 68.81670864 12.38330078 62.53515625 C16.09642464 60.3567533 19.85755439 58.26998437 23.625 56.1875 C28.87949371 53.26401648 33.97144935 50.16758843 39.00366211 46.87036133 C46.40388499 42.03930345 53.9628934 37.4612714 61.49951172 32.84741211 C62.56572754 32.19393799 63.63194336 31.54046387 64.73046875 30.8671875 C65.78572754 30.22160889 66.84098633 29.57603027 67.92822266 28.91088867 C70.83047787 27.10545618 73.68115395 25.23582804 76.53515625 23.35546875 C82.1861348 19.74709253 88.08907286 17.05459431 94.25 14.4375 C95.34030518 13.96642822 96.43061035 13.49535645 97.55395508 13.01000977 C107.57999061 8.6989111 117.61676705 4.38362696 128 1 C129.485 0.505 129.485 0.505 131 0 C130.91685547 1.10408203 130.91685547 1.10408203 130.83203125 2.23046875 C131.02870465 5.47329288 131.83388152 6.68381687 133.6875 9.3125 C143.21801426 24.45317514 144.3623165 42.86205107 144.31567383 60.28222656 C144.31252202 62.73287873 144.33603736 65.18230908 144.36132812 67.6328125 C144.43774043 86.59937035 141.7652961 106.29962144 130.94140625 122.33984375 C129 124 129 124 125.9375 124.3984375 C123 124 123 124 120.4375 121.6875 C110.554499 108.00334476 107.88424719 89.33998615 107.796875 72.84765625 C107.79117493 71.98925644 107.78547485 71.13085663 107.77960205 70.2464447 C107.77020488 68.43538625 107.76363924 66.62431111 107.75976562 64.81323242 C107.75013696 62.10107838 107.71909486 59.38970873 107.6875 56.67773438 C107.62819796 46.6077657 108.30834807 37.14007876 110.35253906 27.27124023 C111.09707936 24.06529813 111.09707936 24.06529813 111 21 C110.47792969 21.65484375 109.95585938 22.3096875 109.41796875 22.984375 C104.33575225 29.28596744 99.05201004 35.30391751 93.546875 41.234375 C91.52140015 43.43381701 89.55905519 45.65876171 87.625 47.9375 C80.680079 55.93671022 73.00308426 63.50591003 64.921875 70.3515625 C63.55283043 71.52582431 62.2116349 72.73288755 60.890625 73.9609375 C53.70140564 80.64353402 45.97501761 86.53063119 38.12548828 92.40527344 C36.17814394 93.86634089 34.24228911 95.34126418 32.30859375 96.8203125 C-10.01756584 128.90814871 -61.64391321 150.67672356 -109.95062256 172.09051514 C-112.11879196 173.0527182 -114.28537023 174.01843665 -116.45166016 174.98486328 C-121.00688361 177.01652104 -125.56527805 179.04096141 -130.125 181.0625 C-131.16740341 181.52547485 -131.16740341 181.52547485 -132.23086548 181.99780273 C-139.54773002 185.24309016 -146.89000233 188.41753936 -154.3046875 191.43359375 C-155.51882324 191.92786865 -156.73295898 192.42214355 -157.98388672 192.93139648 C-161 194 -161 194 -164 194 C-164.38285156 195.25683594 -164.38285156 195.25683594 -164.7734375 196.5390625 C-165.86194266 199.61044966 -167.153403 202.4446031 -168.61450195 205.35253906 C-178.89506233 225.92856278 -186.22953153 248.94360966 -186.125 272.0625 C-186.12886719 272.92166016 -186.13273437 273.78082031 -186.13671875 274.66601562 C-186.12925535 279.55080978 -185.82332147 284.18422282 -185 289 C-195.33426916 289.26236508 -205.56392918 288.87034453 -215.875 288.125 C-217.00268799 288.04652832 -218.13037598 287.96805664 -219.29223633 287.88720703 C-226.29967706 287.35106244 -233.11457386 286.40889337 -240 285 C-239.57438081 282.28931891 -239.13497069 279.58208637 -238.6875 276.875 C-238.51057617 275.73417969 -238.51057617 275.73417969 -238.33007812 274.5703125 C-237.30636831 268.48055154 -236.27117633 263.67843257 -231.06640625 259.83203125 C-229.9044375 259.14854971 -228.73608202 258.47584277 -227.5625 257.8125 C-210.56466299 247.48238372 -198.65328221 232.18930178 -189 215 C-188.40638672 213.94619141 -188.40638672 213.94619141 -187.80078125 212.87109375 C-173.24495692 186.76018425 -162.45194076 158.9927288 -170 129 C-170.6414544 126.99177175 -171.29947378 124.98839319 -172 123 C-171.39115967 122.93119629 -170.78231934 122.86239258 -170.1550293 122.79150391 C-156.63377355 121.14147837 -148.12355231 119.59189979 -139 109 C-137.71035153 107.82850646 -136.39897385 106.68027813 -135.0625 105.5625 C-131.16441927 102.17459753 -127.36317217 98.68409042 -123.56274414 95.18774414 C-120.3923814 92.27224491 -117.20613811 89.37624609 -114 86.5 C-109.79238739 82.7239374 -105.62157628 78.90895993 -101.45874023 75.08374023 C-98.34366875 72.22397796 -95.21148325 69.38484641 -92.0625 66.5625 C-88.22083155 63.1142184 -84.41554021 59.62919842 -80.625 56.125 C-79.79947632 55.36243896 -79.79947632 55.36243896 -78.95727539 54.58447266 C-76.28853251 52.11843394 -73.62267616 49.64937747 -70.9609375 47.17578125 C-20.06802282 0 -20.06802282 0 0 0 Z " fill="#FBB91C" transform="translate(675,360)"/>
<path d="M0 0 C0 0.99 0 1.98 0 3 C-4.22222222 6 -4.22222222 6 -7 6 C-7.33 5.34 -7.66 4.68 -8 4 C-36.69518837 17.57266595 -64.55070539 31.83068045 -90 51 C-90.66547852 51.49709473 -91.33095703 51.99418945 -92.01660156 52.50634766 C-105.23906295 62.40064516 -117.80309849 72.86369862 -130 84 C-130.93328125 84.84046875 -131.8665625 85.6809375 -132.828125 86.546875 C-142.335231 95.13621582 -151.79184781 103.96070222 -160.0859375 113.74609375 C-161.65397307 115.59253564 -163.24399941 117.41090044 -164.8515625 119.22265625 C-172.46546743 127.83906253 -179.59332844 136.73631012 -186.46972656 145.95068359 C-187.90698652 147.87543791 -189.3549302 149.79168475 -190.8046875 151.70703125 C-198.38514473 161.79974376 -205.26623054 172.32811786 -212 183 C-212.40959961 183.64904297 -212.81919922 184.29808594 -213.24121094 184.96679688 C-241.54873164 230.19008667 -277.08627547 296.65917568 -266 352 C-262.40140903 367.3446571 -254.68619959 380.62933435 -241.25 389.25 C-234.33012257 393.1751855 -226.80480617 395.56414313 -219 397 C-220.06648461 400.35784262 -221.23632905 403.6382117 -222.5859375 406.890625 C-229.44888905 423.51846695 -233.22416271 439.96838952 -233.0625 458 C-233.05798828 458.96550781 -233.05347656 459.93101562 -233.04882812 460.92578125 C-233.03715417 463.28392089 -233.02078021 465.64192602 -233 468 C-250.52191757 465.74900913 -265.67088396 449.08042626 -276.0625 435.875 C-301.53041623 402.45270728 -309.91990869 359.58713717 -305.23095703 318.38232422 C-297.75768389 263.117008 -270.10775898 212.76844446 -238 168 C-237.46552246 167.25443848 -236.93104492 166.50887695 -236.38037109 165.74072266 C-228.29406743 154.51397257 -219.88227105 143.60776367 -211 133 C-210.49227051 132.39317383 -209.98454102 131.78634766 -209.46142578 131.16113281 C-198.9199053 118.61154241 -187.81810976 106.73528883 -176.25 95.125 C-175.36256104 94.23288818 -174.47512207 93.34077637 -173.56079102 92.42163086 C-168.5342414 87.40731702 -163.40729852 82.59988719 -158 78 C-156.97872007 77.11118998 -155.95785686 76.22190081 -154.9375 75.33203125 C-115.49444205 41.50121692 -68.38164669 14.48507555 -17.6875 2.0625 C-16.83414062 1.85077148 -15.98078125 1.63904297 -15.1015625 1.42089844 C-9.9417694 0.22089901 -5.29631246 -0.20112579 0 0 Z " fill="#FCBA1D" transform="translate(618,92)"/>
<path d="M0 0 C-0.54527344 0.59425781 -1.09054687 1.18851563 -1.65234375 1.80078125 C-5.60775189 6.14834951 -9.4622154 10.52733324 -13.125 15.125 C-17.60235714 20.66278383 -22.42803078 25.83009753 -27.33251953 30.99072266 C-30.70396464 34.53908965 -34.01425511 38.12609562 -37.265625 41.78515625 C-41.944776 47.00478512 -46.83790637 51.99022018 -51.80371094 56.93408203 C-53.26616891 58.39110886 -54.72310944 59.8535037 -56.1796875 61.31640625 C-57.12467904 62.26073796 -58.06998021 63.20475995 -59.015625 64.1484375 C-59.85383789 64.98552246 -60.69205078 65.82260742 -61.55566406 66.68505859 C-68.55132733 73.3103961 -68.55132733 73.3103961 -73.51953125 74.1953125 C-74.36894287 74.35281982 -75.21835449 74.51032715 -76.09350586 74.67260742 C-77.43940796 74.89654175 -77.43940796 74.89654175 -78.8125 75.125 C-79.74521729 75.29040283 -80.67793457 75.45580566 -81.63891602 75.6262207 C-133.42210137 84.60752615 -202.88010358 84.68955936 -248 53 C-249.3359375 50.796875 -249.3359375 50.796875 -250 49 C-230.73522762 33.95400626 -210.185497 20.41027388 -189.02685547 8.18066406 C-187.17053782 7.09934003 -185.33553043 5.98964025 -183.50390625 4.8671875 C-182.53324219 4.29226563 -181.56257812 3.71734375 -180.5625 3.125 C-179.78003906 2.65320313 -178.99757813 2.18140625 -178.19140625 1.6953125 C-175.11649752 0.71967301 -173.84806304 1.56956354 -171 3 C-118.9790116 26.46449345 -60.70688761 16.96815139 -7.83544922 0.31835938 C-3.29622422 -1.09874141 -3.29622422 -1.09874141 0 0 Z " fill="#FCBA1D" transform="translate(725,731)"/>
<path d="M0 0 C0.61875 0.48082031 1.2375 0.96164062 1.875 1.45703125 C12.80150855 11.09089482 16.68821593 27.08423716 18 41 C19.84608032 71.84878628 10.93419697 99.41058614 -9 123 C-9.43715332 123.52223145 -9.87430664 124.04446289 -10.32470703 124.58251953 C-18.39379238 134.11495637 -29.43934199 146.27913806 -42.27734375 148.37109375 C-47.71438081 148.66963322 -50.77408534 147.59652311 -55 144 C-55.61488281 143.48695313 -56.22976563 142.97390625 -56.86328125 142.4453125 C-73.11202226 127.74256821 -78.02821398 103.58540772 -79.125 82.609375 C-79.75496262 56.9383983 -74.36665209 25.90141258 -57.125 6.125 C-42.23654154 -9.49786672 -17.51363103 -13.81130094 0 0 Z " fill="#8D0004" transform="translate(475,467)"/>
<path d="M0 0 C0.02061493 0.58928284 0.04122986 1.17856567 0.06246948 1.78570557 C0.65080146 18.52615054 1.2853919 35.26443711 2 52 C2.05447296 53.27589996 2.05447296 53.27589996 2.11004639 54.57757568 C2.92571085 73.22183071 5.46485024 90.37394931 11.3125 108.125 C13.76363027 115.90510581 13.30156233 122.58866786 12.32617188 130.61547852 C12.23916016 131.34049561 12.15214844 132.0655127 12.0625 132.8125 C11.97162109 133.56394287 11.88074219 134.31538574 11.78710938 135.08959961 C10.10526954 150.62127122 10.2941395 166.39267106 10 182 C7.1479144 178.35786022 5.31590929 174.51465573 3.4375 170.3125 C-5.4055731 151.12360934 -16.86839296 132.89131292 -31.52734375 117.61328125 C-33.30691149 115.73250586 -34.96457866 113.86729518 -36.6015625 111.87109375 C-48.85516044 97.20269883 -69.77544775 83.7123538 -88.9609375 81.6875 C-95.53473322 81.41711252 -100.67492637 82.56736974 -106.72265625 85.125 C-109 86 -109 86 -112 86 C-109.02272441 64.79200953 -88.35600601 44.61181831 -72.15893555 32.34155273 C-53.89045813 19.16921522 -23.18205716 0 0 0 Z " fill="#8D0004" transform="translate(303,407)"/>
<path d="M0 0 C0.99 0.495 0.99 0.495 2 1 C-8.02382118 8.86250348 -18.11302632 16.62605965 -28.32104492 24.24804688 C-34.43191466 28.81371352 -40.50370168 33.42801939 -46.5625 38.0625 C-59.8905385 48.24630437 -73.41136533 58.16732502 -87 68 C-79.76261161 64.29533251 -72.96570065 60.10944699 -66.17163086 55.66064453 C-59.87413067 51.54417653 -53.51071468 47.5405525 -47.125 43.5625 C-39.80082992 38.99741143 -32.48198871 34.42489897 -25.1875 29.8125 C-24.43194824 29.33498291 -23.67639648 28.85746582 -22.89794922 28.36547852 C-18.87885791 25.82413373 -14.86255617 23.27842941 -10.84765625 20.73046875 C-9.99469971 20.18994873 -9.14174316 19.64942871 -8.26293945 19.0925293 C-6.64214048 18.06537767 -5.02212608 17.03698647 -3.40307617 16.00708008 C1.00279709 13.21622765 5.45098812 10.55129767 10 8 C2.16148366 29.59434403 -22.40213538 48.09173315 -40.16503906 61.59326172 C-42.02997885 63.02298272 -43.87164521 64.47887685 -45.7109375 65.94140625 C-79.36700632 92.49225819 -117.33834368 114.15575848 -155.41259766 133.66357422 C-158.61786838 135.31913677 -161.79721994 137.02061664 -164.97705078 138.72436523 C-183.3942711 148.55413621 -202.1917591 157.44906188 -221.5 165.375 C-222.20643646 165.66807037 -222.91287292 165.96114075 -223.64071655 166.26309204 C-225.641641 167.09001528 -227.64762574 167.90292612 -229.65625 168.7109375 C-230.80931641 169.17806152 -231.96238281 169.64518555 -233.15039062 170.12646484 C-236 171 -236 171 -239 170 C-238.24976563 169.443125 -237.49953125 168.88625 -236.7265625 168.3125 C-193.5075819 136.21698261 -193.5075819 136.21698261 -160.67871094 94.30175781 C-156.88137781 88.25153941 -153.97235246 84.41424894 -147.265625 81.34765625 C-145.83325207 80.67323634 -144.40140399 79.99770104 -142.9699707 79.32128906 C-141.78656601 78.77257141 -141.78656601 78.77257141 -140.57925415 78.21276855 C-135.63569918 75.88830277 -130.75948335 73.42603709 -125.87109375 70.98828125 C-123.65833628 69.88840395 -121.4454433 68.78879923 -119.23242188 67.68945312 C-118.11279053 67.13265869 -116.99315918 66.57586426 -115.83959961 66.00219727 C-113.58515125 64.882496 -111.32962843 63.76495532 -109.07299805 62.6496582 C-94.26553002 55.32851779 -79.75597682 47.64854148 -65.44564819 39.39710999 C-62.35850618 37.63353788 -59.24607183 35.91923692 -56.12489319 34.21679688 C-38.97203495 24.85257826 -22.18798563 14.74521206 -6.01611328 3.7722168 C-4.8653833 3.00325073 -4.8653833 3.00325073 -3.69140625 2.21875 C-3.02310791 1.76435547 -2.35480957 1.30996094 -1.66625977 0.84179688 C-1.11639404 0.56400391 -0.56652832 0.28621094 0 0 Z " fill="#FCBA1D" transform="translate(955,615)"/>
<path d="M0 0 C13.37602565 8.32589351 19.18144453 21.36656027 22.80078125 36.234375 C23.7116122 40.44041113 24.39215159 44.37966616 24.546875 48.6796875 C24.5984375 49.98292969 24.65 51.28617187 24.703125 52.62890625 C25.16914128 70.26597871 23.21704817 88.75466029 11.4296875 102.76171875 C8.01732444 106.23779814 4.54733835 109.3580004 -0.45703125 109.89453125 C-11.87805297 109.02286814 -20.29423393 100.36006098 -27.640625 92.3671875 C-33.56882294 85.03626103 -37.61971505 76.88788614 -40.765625 68.0546875 C-41.00796875 67.37486816 -41.2503125 66.69504883 -41.5 65.99462891 C-44.54770581 56.99571789 -45.82391805 48.29562847 -45.765625 38.8046875 C-45.75998535 37.83942139 -45.7543457 36.87415527 -45.74853516 35.87963867 C-45.52266527 22.60139632 -42.29144587 10.62253369 -33.015625 0.6796875 C-22.7564237 -8.68155308 -11.26530862 -6.06317566 0 0 Z " fill="#8D0004" transform="translate(275.453125,277.3203125)"/>
<path d="M0 0 C8.51858491 5.86835849 11.29390008 13.80008036 13.3984375 23.69140625 C16.24522565 46.00915112 11.51706881 68.48506672 -1.90234375 86.8203125 C-6.92838051 93.21917733 -13.04682119 100.64940101 -21.34765625 102.390625 C-25.76054243 102.62157979 -28.8757321 101.8017317 -32.1875 98.9375 C-42.37557645 86.74931038 -43.72297269 67.58391733 -43.0625 52.3125 C-41.51140733 35.30522509 -36.12625609 16.82310153 -23.1875 4.9375 C-16.05454705 -0.77160054 -8.76432217 -2.92144072 0 0 Z " fill="#8D0004" transform="translate(722.1875,308.0625)"/>
<path d="M0 0 C3.30717081 1.33099655 6.06707521 3.17169273 8.91796875 5.2734375 C9.52157227 5.71308838 10.12517578 6.15273926 10.74707031 6.60571289 C32.76527423 22.92105468 55.12245212 44.94794111 60.54296875 73.0234375 C60.74799809 76.07609653 60.69124667 78.95902714 60.54296875 82.0234375 C57.05933105 80.28161865 56.62066722 75.92359985 55.41796875 72.3984375 C49.90826493 56.93633078 43.24441003 41.46559216 28.15625 33.24609375 C14.71022453 26.95520291 0.22023054 28.38247646 -13.453125 33.3359375 C-26.62761252 38.61216694 -36.95563382 47.58595838 -46.90332031 57.47998047 C-48.20456412 58.77263656 -49.52753079 60.04337599 -50.85546875 61.30859375 C-55.69561494 65.96699532 -59.93726303 71.04674429 -64.10107422 76.3125 C-65.06162084 77.52451129 -66.02731623 78.73245022 -66.99658203 79.9375 C-78.50606109 94.25375417 -89.11097924 109.19458049 -98.17773438 125.1875 C-98.59990234 125.79335938 -99.02207031 126.39921875 -99.45703125 127.0234375 C-100.11703125 127.0234375 -100.77703125 127.0234375 -101.45703125 127.0234375 C-100.84722946 120.20178812 -99.10214718 114.00822803 -97.14453125 107.4609375 C-94.68677994 98.97526075 -92.62602664 90.54634644 -91.14453125 81.8359375 C-90.97171631 80.87945313 -90.79890137 79.92296875 -90.62084961 78.9375 C-89.92433987 74.88095929 -89.34277354 71.08600279 -89.6171875 66.96875 C-89.7242026 62.79050824 -89.52354481 60.68968633 -87.45703125 57.0234375 C-82.39844548 52.83540494 -76.43626443 49.97021531 -70.65234375 46.92578125 C-62.78296115 42.77122615 -55.44959023 37.93930982 -48.08203125 32.9609375 C-47.44149811 32.53039062 -46.80096497 32.09984375 -46.14102173 31.65625 C-28.53404272 19.82035048 -28.53404272 19.82035048 -11.66015625 6.9765625 C-11.06340088 6.49848145 -10.46664551 6.02040039 -9.85180664 5.52783203 C-8.27386524 4.252933 -6.71417201 2.95553659 -5.15625 1.65625 C-2.45703125 0.0234375 -2.45703125 0.0234375 0 0 Z " fill="#8D0004" transform="translate(723.45703125,453.9765625)"/>
<path d="M0 0 C0.33 0.99 0.66 1.98 1 3 C2.35159421 6.61222523 4.01446722 9.87597682 5.875 13.25 C11.9034922 25.14484891 14.12727775 39.16057541 14.203125 52.3984375 C14.20882507 53.19166412 14.21452515 53.98489075 14.22039795 54.80215454 C14.22980159 56.47795297 14.23636338 58.1537695 14.24023438 59.82958984 C14.24984024 62.333359 14.28086551 64.83627014 14.3125 67.33984375 C14.43841546 86.42865143 11.84591378 106.18015186 0.94140625 122.33984375 C-1 124 -1 124 -4.0625 124.3984375 C-7 124 -7 124 -9.5625 121.6875 C-19.445501 108.00334476 -22.11575281 89.33998615 -22.203125 72.84765625 C-22.20882507 71.98925644 -22.21452515 71.13085663 -22.22039795 70.2464447 C-22.22979512 68.43538625 -22.23636076 66.62431111 -22.24023438 64.81323242 C-22.24986304 62.10107838 -22.28090514 59.38970873 -22.3125 56.67773438 C-22.41099644 40.70288836 -21.4178169 24.61411624 -13 10.5625 C-12.505 9.71816406 -12.01 8.87382812 -11.5 8.00390625 C-10 6 -10 6 -7 5 C-7 4.34 -7 3.68 -7 3 C-4.69 2.01 -2.38 1.02 0 0 Z " fill="#8D0004" transform="translate(805,360)"/>
<path d="M0 0 C0.78865259 -0.00282738 1.57730518 -0.00565475 2.38985634 -0.00856781 C6.5822544 -0.02343536 10.77461929 -0.03273712 14.96704102 -0.03710938 C18.33954986 -0.04144504 21.71179579 -0.05516193 25.08422852 -0.078125 C43.36378199 -0.19987542 61.51282746 0.05768779 79.73828125 1.5703125 C80.84765328 1.66203358 80.84765328 1.66203358 81.97943687 1.7556076 C106.85992191 3.86353271 131.56015256 7.59637454 155.89453125 13.203125 C155.89453125 17.23693523 154.29879563 18.69746137 151.89453125 21.890625 C150.78078125 23.38142578 150.78078125 23.38142578 149.64453125 24.90234375 C149.06703125 25.66160156 148.48953125 26.42085938 147.89453125 27.203125 C142.95126951 25.5743306 138.03074426 23.90196019 133.12890625 22.15234375 C107.57356747 13.1565793 81.88275366 8.28088315 54.89453125 6.203125 C54.13495117 6.13303223 53.37537109 6.06293945 52.59277344 5.99072266 C15.63126483 2.74864438 -29.9261078 22.05492479 -60.21484375 42.3203125 C-62.47987806 43.79564566 -64.65733888 45.07413307 -67.10546875 46.203125 C-70.26931497 33.33681706 -71.02213702 19.32493087 -69.10546875 6.203125 C-64.8747465 4.65201979 -61.00014091 3.82077179 -56.51953125 3.38671875 C-54.62654297 3.20012695 -54.62654297 3.20012695 -52.6953125 3.00976562 C-50.73271484 2.82704102 -50.73271484 2.82704102 -48.73046875 2.640625 C-46.82587891 2.45209961 -46.82587891 2.45209961 -44.8828125 2.25976562 C-29.91299333 0.81424719 -15.03375262 0.03750289 0 0 Z " fill="#8D0004" transform="translate(429.10546875,389.796875)"/>
<path d="M0 0 C2.47374527 0.70969158 4.8349103 1.56264223 7.23120117 2.50073242 C8.0671582 2.80495117 8.90311523 3.10916992 9.7644043 3.42260742 C11.82535863 4.17632787 13.87465376 4.95252921 15.91870117 5.75073242 C5.65745434 13.76053586 -7.34887134 19.11992421 -19.14379883 24.50073242 C-19.88645996 24.84773193 -20.62912109 25.19473145 -21.39428711 25.55224609 C-25.09841656 27.19991532 -27.21457509 28.01181708 -31.08129883 26.75073242 C-27.42896618 22.27662492 -23.69307075 18.38391853 -19.29614258 14.64526367 C-15.95798593 11.78987395 -12.72528973 8.81949959 -9.47583008 5.86401367 C-8.68563477 5.16663086 -7.89543945 4.46924805 -7.08129883 3.75073242 C-6.34911133 2.94506836 -5.61692383 2.1394043 -4.86254883 1.30932617 C-2.08129883 -0.24926758 -2.08129883 -0.24926758 0 0 Z " fill="#8D0004" transform="translate(645.081298828125,419.249267578125)"/>
<path d="M0 0 C0.66 0.33 1.32 0.66 2 1 C0.02 1.99 0.02 1.99 -2 3 C-2 2.34 -2 1.68 -2 1 C-1.34 0.67 -0.68 0.34 0 0 Z " fill="#8D0004" transform="translate(667,804)"/>
<path d="M0 0 C2 1 2 1 2 1 Z " fill="#FCBA1D" transform="translate(957,614)"/>
<path d="" fill="#FCBA1D" transform="translate(0,0)"/>
<path d="" fill="#FCBA1D" transform="translate(0,0)"/>
<path d="" fill="#FCBA1D" transform="translate(0,0)"/>
<path d="" fill="#FCBA1D" transform="translate(0,0)"/>
</svg>
