<?xml version="1.0" standalone="no"?>
<!DOCTYPE svg PUBLIC "-//W3C//DTD SVG 20010904//EN"
 "http://www.w3.org/TR/2001/REC-SVG-20010904/DTD/svg10.dtd">
<svg version="1.0" xmlns="http://www.w3.org/2000/svg"
 width="512.000000pt" height="512.000000pt" viewBox="0 0 512.000000 512.000000"
 preserveAspectRatio="xMidYMid meet">

<g transform="translate(0.000000,512.000000) scale(0.100000,-0.100000)"
fill="#000000" stroke="none">
<path d="M2465 5023 c-97 -35 -162 -102 -190 -196 -28 -96 -11 -190 50 -270
l35 -46 -38 -20 c-61 -31 -101 -69 -130 -125 l-27 -51 -3 -272 -3 -273 25 -25
25 -25 351 0 351 0 25 25 25 25 -3 273 -3 272 -27 50 c-31 59 -67 95 -126 124
l-42 22 35 46 c88 116 82 276 -14 386 -71 81 -213 117 -316 80z m174 -170 c85
-63 75 -186 -20 -236 -92 -49 -208 33 -195 137 12 104 133 159 215 99z m123
-531 l33 -32 3 -205 3 -205 -241 0 -241 0 3 204 c3 202 3 205 28 231 14 15 34
31 45 36 11 5 91 7 177 6 l158 -2 32 -33z"/>
<path d="M505 3857 c-122 -41 -200 -130 -220 -254 -9 -55 17 -152 54 -207 71
-103 219 -153 334 -112 l37 14 0 -57 c0 -69 32 -143 84 -193 25 -25 107 -69
264 -142 126 -58 235 -106 244 -106 40 0 69 47 207 342 77 167 141 313 141
325 0 39 -34 62 -230 154 -246 115 -262 121 -335 120 -67 0 -110 -15 -171 -59
l-40 -30 -24 49 c-58 123 -221 197 -345 156z m128 -161 c54 -22 87 -70 87
-124 0 -84 -56 -142 -137 -142 -75 0 -134 58 -135 132 -1 61 25 106 75 129 50
22 67 23 110 5z m659 -194 c93 -43 168 -80 168 -84 0 -5 -189 -416 -196 -427
-7 -9 -358 166 -375 187 -33 42 -25 91 37 225 62 135 83 164 128 175 43 12 51
9 238 -76z"/>
<path d="M4460 3857 c-89 -25 -176 -101 -200 -173 -14 -40 -19 -42 -49 -10
-42 44 -116 69 -195 64 -65 -4 -89 -13 -291 -107 -121 -56 -228 -112 -237
-123 -10 -11 -18 -31 -18 -45 0 -34 275 -624 301 -645 12 -10 32 -18 45 -18
35 0 459 199 502 236 52 44 85 115 90 192 4 54 7 62 21 56 9 -4 51 -9 93 -12
66 -3 84 -1 130 20 76 35 112 70 147 140 56 111 38 244 -45 337 -72 80 -194
116 -294 88z m130 -163 c73 -29 108 -134 66 -199 -41 -62 -131 -83 -193 -45
-67 41 -85 142 -36 201 27 32 73 58 105 59 10 0 36 -7 58 -16z m-491 -131 c31
-21 151 -271 151 -313 0 -39 -22 -83 -52 -102 -36 -22 -338 -161 -342 -157 -7
8 -196 419 -196 426 0 5 73 42 163 85 175 82 229 94 276 61z"/>
<path d="M2405 3590 c-141 -22 -327 -97 -445 -181 -74 -52 -192 -170 -245
-244 -91 -128 -163 -306 -184 -459 -78 -560 306 -1080 864 -1171 563 -92 1098
295 1190 860 77 471 -181 935 -624 1124 -117 50 -223 72 -366 76 -71 2 -157 0
-190 -5z m370 -179 c369 -96 629 -406 662 -787 4 -54 3 -75 -5 -70 -6 3 -14
21 -17 39 -28 128 -132 217 -254 217 -48 0 -93 -12 -227 -60 -92 -33 -179 -60
-194 -60 -41 0 -76 34 -99 96 -36 94 -31 114 48 199 83 89 106 145 99 239 -6
65 -30 123 -73 175 -31 36 -31 36 60 12z m-364 -17 c19 -15 67 -41 106 -60 89
-41 116 -77 110 -142 -4 -37 -14 -53 -69 -110 -82 -85 -102 -135 -96 -234 4
-52 14 -92 35 -138 39 -85 72 -123 135 -154 84 -42 128 -37 339 39 117 42 189
63 204 59 36 -9 65 -47 86 -111 25 -73 60 -124 111 -159 47 -33 47 -41 -3
-160 -176 -423 -645 -639 -1080 -497 l-84 27 87 7 c132 11 182 31 254 103 72
72 98 135 97 237 0 119 -72 233 -181 286 -52 25 -70 28 -199 33 -123 4 -145 8
-170 26 -73 54 -88 119 -57 251 24 103 16 202 -23 285 -17 37 -52 87 -76 112
l-45 44 52 50 c102 99 201 161 336 208 84 29 90 29 131 -2z m-545 -465 c32
-62 35 -114 14 -209 -11 -49 -20 -114 -20 -145 0 -121 77 -238 192 -290 59
-27 71 -29 178 -27 136 2 167 -6 214 -58 46 -51 56 -110 28 -171 -40 -91 -85
-108 -282 -108 -80 -1 -169 2 -199 6 -52 6 -54 7 -115 84 -73 93 -126 194
-162 316 -24 78 -27 104 -27 228 0 160 18 247 78 374 l35 74 26 -24 c14 -13
32 -36 40 -50z"/>
<path d="M1055 2216 c-171 -81 -230 -113 -266 -147 -52 -50 -79 -116 -79 -192
0 -47 -1 -49 -22 -42 -13 4 -55 9 -94 12 -63 4 -79 2 -133 -22 -112 -51 -175
-147 -175 -270 -1 -260 307 -397 501 -222 21 20 49 58 62 85 l24 50 46 -33
c63 -45 111 -58 189 -53 60 4 91 16 287 107 121 57 228 112 238 123 9 11 17
30 17 43 0 31 -277 626 -302 648 -11 9 -32 17 -47 16 -14 0 -125 -47 -246
-103z m308 -296 c53 -116 97 -214 97 -218 0 -4 -75 -42 -168 -85 -178 -82
-225 -93 -271 -60 -14 9 -51 73 -89 152 -57 120 -64 140 -59 180 4 35 12 51
33 69 28 22 328 169 349 171 6 1 54 -94 108 -209z m-712 -245 c43 -23 69 -71
69 -129 0 -43 -4 -53 -38 -86 -50 -50 -94 -59 -155 -32 -54 24 -80 67 -80 129
0 100 112 165 204 118z"/>
<path d="M3783 2308 c-13 -6 -31 -29 -42 -52 -130 -271 -271 -584 -271 -601 0
-13 8 -32 18 -44 22 -26 408 -207 485 -227 86 -23 171 -2 244 60 l30 25 23
-50 c86 -182 336 -221 478 -76 110 112 114 289 9 412 -64 77 -208 116 -304 82
l-43 -15 0 53 c0 96 -49 186 -125 230 -70 42 -425 206 -454 210 -14 3 -36 -1
-48 -7z m243 -252 c87 -41 174 -88 192 -104 49 -44 45 -85 -24 -235 -96 -212
-114 -216 -367 -100 -93 44 -166 83 -165 90 6 23 193 422 199 423 3 0 78 -33
165 -74z m581 -386 c65 -39 85 -105 54 -175 -16 -37 -29 -50 -67 -66 -62 -28
-106 -19 -156 31 -33 33 -38 44 -38 84 0 26 7 60 15 77 34 64 128 89 192 49z"/>
<path d="M2184 1375 l-25 -25 3 -273 3 -272 27 -51 c29 -56 69 -94 130 -125
l38 -20 -35 -46 c-88 -116 -82 -276 14 -386 82 -92 237 -121 353 -64 169 83
219 299 104 449 l-35 46 57 33 c62 37 114 103 132 167 5 21 10 149 10 290 l0
253 -25 24 -24 25 -351 0 -351 0 -25 -25z m614 -340 l-3 -205 -33 -32 -32 -33
-170 0 -170 0 -32 33 -33 32 -3 205 -3 205 241 0 241 0 -3 -205z m-159 -542
c85 -63 75 -186 -20 -236 -92 -49 -208 33 -195 137 12 104 133 159 215 99z"/>
</g>
</svg>
