<?xml version="1.0" standalone="no"?>
<!DOCTYPE svg PUBLIC "-//W3C//DTD SVG 20010904//EN"
 "http://www.w3.org/TR/2001/REC-SVG-20010904/DTD/svg10.dtd">
<svg version="1.0" xmlns="http://www.w3.org/2000/svg"
 width="512.000000pt" height="512.000000pt" viewBox="0 0 512.000000 512.000000"
 preserveAspectRatio="xMidYMid meet">

<g transform="translate(0.000000,512.000000) scale(0.100000,-0.100000)"
fill="#000000" stroke="none">
<path d="M2443 5105 c-182 -49 -320 -189 -368 -372 -56 -215 61 -459 267 -558
40 -20 90 -38 111 -42 42 -6 32 -23 -14 -23 -52 0 -186 -42 -274 -85 -175 -86
-325 -235 -410 -410 -71 -143 -87 -219 -92 -436 l-5 -186 30 -34 30 -34 836
-3 835 -2 33 29 33 29 -1 194 c-1 165 -4 205 -23 273 -69 256 -239 464 -474
580 -89 44 -222 85 -276 85 -46 0 -56 17 -14 23 21 4 71 22 111 42 206 99 323
343 267 558 -70 270 -346 441 -602 372z m239 -213 c59 -26 124 -91 151 -151
30 -64 30 -178 0 -242 -27 -60 -92 -125 -152 -152 -64 -30 -178 -30 -242 0
-129 59 -202 206 -169 342 43 180 242 278 412 203z m16 -987 c46 -9 115 -34
172 -62 79 -38 109 -60 181 -132 72 -72 94 -102 132 -181 53 -109 77 -211 77
-330 l0 -80 -700 0 -700 0 0 80 c0 116 24 221 77 329 37 78 59 109 131 181 74
74 101 94 182 133 153 74 291 93 448 62z"/>
<path d="M563 3905 c-155 -43 -261 -156 -293 -310 -7 -33 -10 -312 -8 -815 l3
-765 27 -50 c14 -27 277 -342 583 -700 306 -357 563 -662 571 -677 11 -21 14
-82 14 -272 l0 -246 29 -32 29 -33 1036 -3 1035 -2 33 29 33 29 5 259 c4 217
8 263 21 284 9 14 265 315 569 669 303 355 564 668 578 695 l27 50 0 790 c0
734 -1 794 -18 841 -57 165 -199 266 -372 268 -172 2 -312 -92 -377 -251 -23
-57 -23 -65 -28 -530 l-5 -472 -40 41 c-126 128 -373 145 -505 34 -21 -18
-279 -282 -837 -858 l-113 -116 -108 111 c-421 436 -821 845 -842 863 -98 82
-276 98 -402 36 -35 -17 -81 -49 -103 -71 l-40 -40 -5 472 c-5 458 -6 474 -27
526 -30 74 -70 128 -125 172 -93 74 -238 105 -345 74z m203 -217 c19 -13 47
-41 62 -62 l27 -39 6 -526 c6 -577 4 -556 71 -699 45 -96 120 -181 420 -478
291 -289 300 -296 366 -268 38 16 63 64 55 109 -4 23 -76 101 -288 315 -247
249 -285 291 -295 329 -31 115 48 229 165 239 29 2 69 -1 89 -8 27 -9 141
-120 483 -472 246 -254 461 -478 477 -500 56 -77 56 -74 56 -780 l0 -648 -399
0 -400 0 -3 213 c-3 208 -4 213 -30 262 -14 28 -275 340 -579 695 -304 355
-560 659 -571 675 -17 28 -18 69 -18 765 0 466 4 748 10 772 13 44 81 114 124
128 49 15 133 4 172 -22z m3800 0 c19 -13 47 -41 62 -62 l27 -39 3 -754 c2
-636 0 -757 -12 -781 -8 -15 -265 -319 -571 -677 -306 -357 -569 -672 -583
-700 -26 -49 -27 -54 -30 -262 l-3 -213 -400 0 -399 0 0 648 c0 441 4 660 11
687 6 22 25 61 43 86 17 26 233 254 479 507 342 352 456 463 483 472 150 50
294 -82 254 -231 -10 -38 -48 -80 -295 -329 -212 -214 -284 -292 -288 -315 -8
-45 17 -93 55 -109 67 -28 72 -24 399 303 168 168 322 331 342 363 48 74 93
187 106 268 7 39 11 253 11 530 0 283 4 479 10 502 13 44 81 114 124 128 49
15 133 4 172 -22z"/>
<path d="M1924 1510 c-32 -13 -64 -59 -64 -91 0 -40 46 -88 91 -95 31 -5 42
-1 70 24 28 25 34 37 34 72 0 35 -6 47 -33 71 -33 29 -60 35 -98 19z"/>
<path d="M3124 1510 c-32 -13 -64 -59 -64 -91 0 -40 46 -88 91 -95 31 -5 42
-1 70 24 28 25 34 37 34 72 0 35 -6 47 -33 71 -33 29 -60 35 -98 19z"/>
</g>
</svg>
