<?xml version="1.0" standalone="no"?>
<!DOCTYPE svg PUBLIC "-//W3C//DTD SVG 20010904//EN"
 "http://www.w3.org/TR/2001/REC-SVG-20010904/DTD/svg10.dtd">
<svg version="1.0" xmlns="http://www.w3.org/2000/svg"
 width="512.000000pt" height="512.000000pt" viewBox="0 0 512.000000 512.000000"
 preserveAspectRatio="xMidYMid meet">

<g transform="translate(0.000000,512.000000) scale(0.100000,-0.100000)"
fill="#000000" stroke="none">
<path d="M2532 4839 c-46 -23 -99 -80 -108 -116 -7 -28 -14 -28 -62 -4 -20 10
-68 29 -107 42 -68 22 -84 23 -484 27 -288 2 -428 0 -460 -8 -66 -16 -116 -52
-148 -107 -23 -40 -27 -58 -27 -119 l1 -72 -32 -6 c-41 -8 -110 -68 -136 -118
-15 -30 -20 -56 -18 -105 l2 -65 -38 -14 c-52 -18 -84 -43 -120 -93 -27 -39
-30 -50 -30 -122 0 -74 -1 -79 -21 -79 -34 0 -116 -61 -141 -105 -45 -79 -39
-183 14 -246 l24 -28 -38 -24 c-64 -41 -131 -106 -177 -171 -49 -69 -389 -656
-411 -710 -44 -106 21 -248 132 -287 l31 -10 -6 -65 c-3 -46 0 -76 12 -109 20
-51 92 -120 137 -130 26 -6 28 -9 21 -33 -31 -112 29 -236 132 -273 l34 -12
-5 -71 c-5 -64 -2 -76 24 -126 40 -76 101 -113 193 -118 l67 -4 6 -72 c3 -40
16 -105 30 -144 23 -65 376 -693 433 -768 70 -94 231 -104 322 -20 22 19 24
20 33 4 13 -23 85 -64 127 -73 54 -11 118 4 170 39 l49 33 24 -25 c76 -79 234
-81 303 -3 l20 21 30 -29 c110 -106 310 -66 358 71 12 33 17 34 66 9 20 -10
69 -29 107 -42 68 -22 84 -23 487 -27 479 -4 498 -2 568 68 48 48 75 127 65
193 -7 44 -7 44 27 51 44 8 113 67 139 118 15 30 20 56 18 105 l-2 65 38 14
c52 18 84 43 120 93 27 39 30 50 30 122 0 73 2 79 21 79 35 0 111 56 138 103
48 81 41 193 -14 253 l-20 21 72 54 c40 30 93 79 118 111 44 55 406 671 435
741 44 107 -21 249 -132 288 l-31 10 6 65 c3 46 0 76 -12 109 -20 51 -92 120
-137 130 -26 6 -28 9 -21 33 31 112 -29 236 -132 273 l-34 12 5 71 c5 64 2 76
-24 126 -40 76 -101 113 -193 118 l-67 4 -6 72 c-3 39 -16 103 -30 142 -22 66
-375 694 -433 770 -70 94 -231 104 -322 20 -22 -19 -24 -20 -33 -4 -13 23 -85
64 -127 73 -54 11 -118 -4 -170 -39 l-49 -33 -24 25 c-76 79 -234 81 -303 3
l-20 -21 -30 29 c-65 63 -173 80 -254 40z m161 -161 c13 -18 63 -103 112 -188
49 -85 97 -165 108 -177 42 -47 127 -16 127 46 0 13 -29 75 -65 136 -36 62
-65 122 -65 134 0 31 43 71 78 71 39 0 54 -19 166 -215 54 -93 105 -176 114
-182 28 -23 78 -16 101 13 12 15 21 34 21 42 0 8 -27 63 -59 121 -59 104 -65
119 -62 153 1 24 41 58 67 58 38 0 69 -39 165 -205 50 -88 98 -168 107 -177
21 -25 77 -23 102 2 32 32 25 71 -35 173 -30 51 -55 104 -55 116 0 33 18 61
47 72 57 21 67 9 268 -339 243 -420 240 -413 240 -572 0 -111 -3 -132 -25
-185 -21 -49 -353 -636 -394 -696 -9 -14 -26 9 -100 137 -49 84 -96 156 -105
160 -9 3 -119 41 -246 84 -126 43 -250 89 -275 104 -25 14 -96 69 -158 123
l-114 98 153 5 c150 5 152 5 172 32 13 17 18 34 14 50 -4 12 -126 230 -272
483 -173 300 -265 469 -265 487 0 39 32 68 74 68 28 0 40 -7 59 -32z m-462
-66 c83 -28 177 -89 231 -152 22 -26 128 -198 234 -381 l193 -334 -178 -5
c-143 -4 -183 -8 -197 -21 -11 -8 -93 -80 -182 -160 -90 -79 -187 -160 -215
-179 -48 -32 -324 -136 -335 -126 -2 3 25 57 62 120 36 63 66 126 66 140 0 13
-9 34 -19 47 -19 23 -25 24 -186 27 -182 4 -215 -3 -234 -44 -16 -35 -14 -48
10 -78 20 -25 24 -26 121 -26 91 0 100 -2 94 -17 -4 -10 -44 -81 -88 -158
l-82 -140 53 -260 c28 -143 52 -281 51 -307 0 -53 -47 -309 -59 -320 -4 -4
-33 38 -65 95 -32 56 -68 112 -79 125 -23 25 -73 30 -99 10 -9 -7 -133 -218
-277 -468 -144 -250 -271 -463 -283 -472 -43 -37 -118 -5 -118 51 0 15 48 109
110 217 60 105 110 203 110 217 0 60 -75 93 -120 52 -10 -9 -44 -62 -75 -116
-73 -129 -111 -155 -166 -110 -42 34 -31 70 85 270 58 102 106 191 106 198 0
27 -24 62 -50 73 -47 19 -74 -3 -140 -116 -80 -136 -109 -156 -164 -113 -45
36 -37 66 76 259 62 108 101 186 101 203 0 55 -75 92 -117 58 -9 -8 -39 -53
-67 -102 -62 -109 -72 -119 -114 -119 -40 0 -75 32 -75 67 0 30 359 654 420
730 55 70 147 132 237 163 59 20 96 24 270 29 187 6 203 8 217 26 21 28 20 68
-3 96 -19 24 -21 24 -277 29 l-257 5 -19 26 c-15 20 -18 35 -13 58 12 56 36
61 289 61 l225 0 20 26 c24 30 26 43 10 77 -18 39 -50 47 -186 47 -116 0 -129
2 -150 22 -28 26 -30 67 -4 99 19 24 21 24 248 27 216 3 229 4 250 24 28 26
30 68 4 99 -18 23 -27 24 -161 29 -125 4 -143 7 -156 24 -23 33 -18 82 12 105
25 20 39 21 240 21 201 0 215 1 234 20 30 30 27 83 -6 109 -24 19 -40 21 -150
21 -121 0 -123 0 -143 26 -12 15 -21 33 -21 40 0 25 22 62 44 73 14 7 154 10
431 8 393 -3 413 -4 476 -25z m2216 -1024 c13 -12 23 -33 23 -47 0 -14 -48
-110 -110 -217 -61 -106 -110 -202 -110 -216 0 -61 74 -94 120 -53 10 9 44 62
75 116 73 129 111 155 166 110 42 -34 31 -70 -85 -270 -58 -102 -106 -194
-106 -205 1 -47 55 -80 102 -64 19 7 43 37 87 113 80 136 110 157 165 114 45
-35 36 -65 -76 -258 -62 -108 -101 -187 -101 -204 0 -37 34 -70 72 -70 41 0
51 10 111 113 63 110 73 120 115 120 40 0 75 -32 75 -67 0 -24 -344 -629 -406
-714 -58 -80 -145 -142 -254 -180 -63 -23 -76 -24 -479 -27 -397 -3 -413 -3
-407 15 4 10 44 81 88 158 l82 140 -53 260 c-28 143 -52 280 -51 305 0 52 51
330 60 330 3 0 32 -46 64 -102 32 -57 68 -113 79 -125 23 -26 73 -31 99 -10 9
6 133 217 277 467 144 250 271 463 283 473 28 23 67 22 95 -5z m-1716 -177
c110 -96 194 -162 237 -184 37 -19 153 -63 257 -97 105 -35 193 -64 196 -66 3
-2 -14 -101 -37 -221 -25 -122 -44 -247 -44 -283 0 -36 19 -161 44 -283 23
-120 40 -219 37 -221 -3 -2 -91 -31 -196 -66 -104 -34 -220 -78 -257 -97 -43
-22 -127 -88 -237 -184 l-171 -150 -171 150 c-110 96 -194 162 -237 184 -37
19 -152 63 -257 97 -104 35 -193 64 -196 66 -3 2 14 101 37 221 25 122 44 247
44 283 0 36 -19 161 -44 283 -23 120 -40 219 -37 221 3 2 92 31 196 66 105 34
220 78 257 97 43 23 125 86 235 183 92 82 169 149 171 149 2 1 80 -66 173
-148z m-1272 -1299 c46 -78 89 -148 96 -156 8 -8 124 -51 259 -96 272 -91 294
-103 447 -238 l100 -87 -152 -5 c-150 -5 -152 -5 -172 -32 -13 -17 -18 -34
-14 -50 4 -12 126 -230 272 -483 171 -297 265 -470 265 -487 0 -39 -32 -68
-74 -68 -43 0 -52 12 -171 220 -49 85 -97 165 -108 178 -42 46 -127 16 -127
-45 0 -14 29 -77 65 -138 36 -62 65 -122 65 -134 0 -31 -43 -71 -78 -71 -39 0
-53 18 -171 222 -56 97 -108 179 -117 182 -36 14 -73 6 -93 -20 -12 -15 -21
-34 -21 -42 0 -8 27 -63 59 -121 33 -58 61 -113 62 -121 9 -45 -30 -90 -76
-90 -29 0 -67 50 -156 205 -50 88 -98 168 -107 178 -21 24 -77 22 -102 -3 -32
-32 -24 -71 35 -174 30 -52 55 -104 55 -116 0 -32 -18 -60 -47 -71 -58 -22
-68 -9 -269 339 -242 420 -239 413 -239 572 0 111 3 132 25 185 23 53 401 718
405 712 1 -1 39 -66 84 -145z m1881 -249 c0 -3 -29 -57 -65 -118 -69 -119 -76
-149 -46 -186 l19 -24 556 -3 555 -2 20 -27 c24 -29 25 -42 10 -76 -19 -43
-46 -47 -284 -47 l-224 0 -20 -26 c-24 -30 -26 -43 -10 -77 18 -39 50 -47 186
-47 116 0 129 -2 150 -22 28 -26 30 -67 4 -99 -19 -24 -21 -24 -248 -27 -216
-3 -229 -4 -250 -24 -28 -26 -30 -68 -4 -99 18 -23 27 -24 161 -29 125 -4 143
-7 156 -24 23 -33 18 -82 -12 -105 -25 -20 -39 -21 -240 -21 -201 0 -215 -1
-234 -20 -30 -30 -27 -83 6 -109 24 -19 40 -21 149 -21 133 0 146 -5 160 -62
6 -22 1 -33 -24 -58 l-31 -31 -412 3 c-394 4 -416 5 -479 26 -83 28 -177 89
-231 152 -23 26 -128 198 -234 381 l-193 334 178 5 c160 4 181 7 202 25 13 11
60 52 104 91 306 270 297 264 485 329 134 47 140 49 140 38z"/>
</g>
</svg>
