<?xml version="1.0" standalone="no"?>
<!DOCTYPE svg PUBLIC "-//W3C//DTD SVG 20010904//EN"
 "http://www.w3.org/TR/2001/REC-SVG-20010904/DTD/svg10.dtd">
<svg version="1.0" xmlns="http://www.w3.org/2000/svg"
 width="1024.000000pt" height="1024.000000pt" viewBox="0 0 1024.000000 1024.000000"
 preserveAspectRatio="xMidYMid meet">

<g transform="translate(0.000000,1024.000000) scale(0.100000,-0.100000)"
fill="#000000" stroke="none">
<path d="M4870 7459 c-284 -32 -533 -95 -780 -196 -171 -71 -471 -232 -430
-233 8 0 49 9 90 20 41 11 149 30 240 42 142 19 211 22 500 22 295 0 365 -3
589 -27 224 -24 307 -36 553 -78 89 -15 228 -58 282 -87 67 -37 143 -106 167
-154 30 -59 34 -122 14 -239 -22 -129 -26 -345 -6 -411 20 -69 50 -98 102 -98
101 0 147 56 191 234 34 136 53 167 90 147 31 -16 65 -67 95 -142 98 -243 9
-509 -199 -592 -83 -33 -122 -56 -146 -88 -77 -101 -67 -308 22 -433 68 -96
171 -144 285 -133 77 7 215 55 298 105 110 65 242 197 292 290 11 21 7 31 -38
101 -101 154 -135 278 -129 477 4 124 8 149 37 236 35 104 99 211 176 291 25
26 45 52 45 56 0 5 -55 62 -122 126 -452 433 -1024 696 -1660 765 -113 12
-449 11 -558 -1z"/>
<path d="M2804 6197 c-95 -143 -211 -372 -277 -542 -68 -179 -159 -541 -144
-579 14 -36 314 -236 321 -214 3 7 7 46 11 87 15 171 73 405 148 596 44 112
116 269 121 264 3 -2 -2 -33 -9 -69 -8 -36 -20 -129 -27 -208 -21 -251 13
-528 91 -742 47 -127 54 -136 146 -174 137 -55 325 -119 332 -112 10 10 -24
109 -78 227 -29 63 -49 120 -49 141 0 71 50 143 114 168 45 17 79 -2 111 -63
43 -80 73 -115 115 -137 63 -32 175 -24 285 20 29 11 28 12 -62 35 -221 56
-405 174 -556 355 -96 116 -171 275 -208 439 -21 96 -26 284 -9 371 6 29 9 55
7 57 -2 1 -18 -17 -36 -42 l-32 -45 -52 43 c-72 61 -219 157 -239 157 -2 0
-13 -15 -24 -33z"/>
<path d="M7576 5093 c19 -96 20 -93 -30 -93 -95 0 -321 -46 -756 -155 -507
-126 -619 -183 -758 -387 -35 -51 -104 -189 -98 -195 8 -8 350 28 526 56 669
105 1174 281 1468 511 l32 25 -16 130 c-21 187 -15 174 -82 162 -56 -9 -206
-4 -268 9 l-31 6 13 -69z"/>
<path d="M2353 4598 c7 -302 25 -428 99 -698 95 -348 296 -735 524 -1012 117
-141 276 -299 404 -402 111 -89 215 -166 224 -166 3 0 -13 43 -34 96 -49 118
-96 285 -115 399 l-14 88 -69 71 c-343 351 -565 809 -652 1342 -11 66 -16 76
-93 175 -46 57 -124 161 -176 232 -51 70 -96 127 -98 127 -3 0 -3 -114 0 -252z"/>
<path d="M6515 4093 c-114 -13 -203 -27 -285 -44 -123 -25 -334 -79 -351 -90
-21 -13 -15 -166 10 -274 48 -201 161 -317 371 -383 144 -45 201 -82 246 -158
48 -82 65 -252 43 -427 l-12 -89 -66 -43 c-275 -178 -609 -302 -958 -357 -182
-28 -496 -30 -688 -4 -211 29 -455 97 -645 180 -46 20 -87 33 -91 29 -13 -14
-29 -123 -36 -239 l-6 -112 30 -16 c54 -27 293 -105 417 -136 232 -57 384 -74
661 -74 208 0 275 4 395 23 607 92 1119 343 1552 760 218 210 414 471 542 720
l54 106 -33 89 c-134 357 -485 550 -990 545 -71 -1 -143 -4 -160 -6z"/>
<path d="M4900 3537 c-127 -68 -141 -79 -270 -207 -75 -74 -161 -166 -192
-205 -58 -74 -148 -200 -148 -209 0 -3 31 -21 68 -41 131 -69 203 -170 224
-315 12 -86 36 -130 71 -130 49 0 356 279 533 485 38 44 75 86 81 93 23 25 99
127 121 162 26 44 45 157 36 219 -9 62 -41 117 -76 132 -23 9 -44 9 -97 0 -91
-16 -138 -4 -183 49 l-34 39 -134 -72z"/>
</g>
</svg>
